<svg xmlns="http://www.w3.org/2000/svg" width="39.97" height="36" viewBox="0 0 39.97 36">
  <defs>
    <style>
      .cls-1 {
        fill: #18c6ff;
        fill-rule: evenodd;
      }
    </style>
  </defs>
  <path id="att.svg" class="cls-1" d="M1210.8,3314.44l-18.99-33.96a0.932,0.932,0,0,0-1.63,0l-19.06,34.06a1.04,1.04,0,0,0,0,.97,0.947,0.947,0,0,0,.82.49h38.12a0.958,0.958,0,0,0,.94-0.97A0.915,0.915,0,0,0,1210.8,3314.44Zm-37.23-.38,17.42-31.15,17.43,31.15h-34.85Zm16.48-21.31v13.93a0.945,0.945,0,1,0,1.89,0v-13.93A0.946,0.946,0,1,0,1190.05,3292.75Zm0.94,16.03a1.211,1.211,0,1,0,1.17,1.21A1.185,1.185,0,0,0,1190.99,3308.78Z" transform="translate(-1171.03 -3280)"/>
</svg>
