<svg xmlns="http://www.w3.org/2000/svg" width="51" height="51" viewBox="0 0 51 51">
  <defs>
    <style>
      .cls-1 {
        fill: #18c6ff;
        fill-rule: evenodd;
      }
    </style>
  </defs>
  <path id="clock2.svg" class="cls-1" d="M1402.5,5346a25.5,25.5,0,1,0,25.5,25.5A25.53,25.53,0,0,0,1402.5,5346Zm0,49.3a23.8,23.8,0,1,1,23.8-23.8A23.831,23.831,0,0,1,1402.5,5395.3Zm0.85-27.18v-8.63a0.85,0.85,0,1,0-1.7,0v8.63a3.4,3.4,0,0,0-2.43,2.43h-6.07a0.85,0.85,0,1,0,0,1.7h6.07A3.393,3.393,0,1,0,1403.35,5368.12Zm-0.85,4.98a1.7,1.7,0,1,1,1.7-1.7A1.7,1.7,0,0,1,1402.5,5373.1Zm0-18.7a0.849,0.849,0,0,0,.85-0.85v-0.85a0.85,0.85,0,1,0-1.7,0v0.85A0.849,0.849,0,0,0,1402.5,5354.4Zm0,34a0.843,0.843,0,0,0-.85.85v0.84a0.85,0.85,0,1,0,1.7,0v-0.84A0.843,0.843,0,0,0,1402.5,5388.4Zm18.7-17.85h-0.85a0.85,0.85,0,0,0,0,1.7h0.85A0.85,0.85,0,0,0,1421.2,5370.55Zm-36.55,0h-0.85a0.85,0.85,0,0,0,0,1.7h0.85A0.85,0.85,0,0,0,1384.65,5370.55Zm30.47-12.98-0.6.6a0.851,0.851,0,0,0,0,1.2,0.832,0.832,0,0,0,.6.25,0.816,0.816,0,0,0,.6-0.25l0.6-.6a0.833,0.833,0,0,0,0-1.2A0.851,0.851,0,0,0,1415.12,5357.57Zm-25.84,25.85-0.6.6a0.833,0.833,0,0,0,0,1.2,0.857,0.857,0,0,0,.6.25,0.894,0.894,0,0,0,.6-0.25l0.6-.6a0.851,0.851,0,0,0,0-1.2A0.833,0.833,0,0,0,1389.28,5383.42Zm26.44,0a0.833,0.833,0,0,0-1.2,0,0.851,0.851,0,0,0,0,1.2l0.6,0.6a0.875,0.875,0,0,0,.6.25,0.857,0.857,0,0,0,.6-0.25,0.833,0.833,0,0,0,0-1.2Zm-25.84-25.85a0.851,0.851,0,0,0-1.2,0,0.833,0.833,0,0,0,0,1.2l0.6,0.6a0.816,0.816,0,0,0,.6.25,0.832,0.832,0,0,0,.6-0.25,0.851,0.851,0,0,0,0-1.2Z" transform="translate(-1377 -5346)"/>
</svg>
