<svg xmlns="http://www.w3.org/2000/svg" width="36" height="36" viewBox="0 0 36 36">
  <defs>
    <style>
      .cls-1 {
        fill: #18c6ff;
        fill-rule: evenodd;
      }
    </style>
  </defs>
  <path id="clock.svg" class="cls-1" d="M1286,705.868a0.783,0.783,0,0,0,.78-0.782v-0.392a0.78,0.78,0,1,0-1.56,0v0.392A0.783,0.783,0,0,0,1286,705.868Zm0,24.261a0.783,0.783,0,0,0-.78.782V731.3a0.78,0.78,0,1,0,1.56,0v-0.391A0.783,0.783,0,0,0,1286,730.129Zm-12.91-12.913h-0.39a0.783,0.783,0,1,0,0,1.565h0.39A0.783,0.783,0,0,0,1273.09,717.216Zm26.21,0h-0.39a0.783,0.783,0,0,0,0,1.565h0.39A0.783,0.783,0,1,0,1299.3,717.216Zm-22.14-9.157a0.776,0.776,0,0,0-1.1,1.1l0.27,0.274a0.8,0.8,0,0,0,.55.234,0.777,0.777,0,0,0,.55-0.234,0.762,0.762,0,0,0,0-1.1Zm-0.83,18.509-0.27.274a0.762,0.762,0,0,0,0,1.1,0.778,0.778,0,0,0,.55.235,0.8,0.8,0,0,0,.55-0.235l0.27-.274A0.776,0.776,0,1,0,1276.33,726.568Zm18.51-18.509-0.27.274a0.762,0.762,0,0,0,0,1.1,0.777,0.777,0,0,0,.55.234,0.755,0.755,0,0,0,.54-0.234l0.28-.274A0.776,0.776,0,0,0,1294.84,708.059Zm-8.06,9.626v-7.121a0.78,0.78,0,1,0-1.56,0V718a0.8,0.8,0,0,0,.23.548l8.57,8.57a0.763,0.763,0,0,0,1.1,0,0.762,0.762,0,0,0,0-1.1ZM1286,700a18,18,0,1,0,18,18A18,18,0,0,0,1286,700Zm0,34.435A16.436,16.436,0,1,1,1302.43,718,16.428,16.428,0,0,1,1286,734.434Z" transform="translate(-1268 -700)"/>
</svg>
