<svg xmlns="http://www.w3.org/2000/svg" width="47" height="39" viewBox="0 0 47 39">
  <defs>
    <style>
      .cls-1 {
        fill: #18c6ff;
        fill-rule: evenodd;
      }
    </style>
  </defs>
  <path id="dislike.svg" class="cls-1" d="M407,4489.69a4.318,4.318,0,0,1-1.316,3.07,4.52,4.52,0,0,1-3.2,1.29h-11.7c0.094,0.23.235,0.46,0.329,0.69,0.282,0.69.564,1.38,0.8,2.06a15.488,15.488,0,0,1,.564,2.12c0.141,0.69.235,1.42,0.329,2.2a4.416,4.416,0,0,1-1.034,3.26,4.5,4.5,0,0,1-2.914,1.56c-0.094,0-.188.05-0.282,0.05a4.527,4.527,0,0,1-3.2-1.01,4.394,4.394,0,0,1-1.6-2.85c0-.09-0.047-0.18-0.047-0.27a9.125,9.125,0,0,0-.188-1.11,12.8,12.8,0,0,0-.329-1.24c-0.141-.36-0.282-0.78-0.423-1.14-0.188-.42-0.376-0.79-0.564-1.15a14.483,14.483,0,0,0-1.363-1.93,12.5,12.5,0,0,0-1.6-1.52,4.174,4.174,0,0,1-.47-0.27,2.882,2.882,0,0,1-1.833.64H362.961a2.969,2.969,0,0,1-2.068-.83,3.059,3.059,0,0,1-.893-2.11v-21.35a2.865,2.865,0,0,1,.846-2.03,3.005,3.005,0,0,1,2.068-.82h13.912a2.882,2.882,0,0,1,1.833.64,3.877,3.877,0,0,1,2.162-.64H399.48a4.659,4.659,0,0,1,3.1,1.19,0.782,0.782,0,0,0,.094.09,4.441,4.441,0,0,1,1.316,3.13,4.36,4.36,0,0,1-.658,2.29,4.629,4.629,0,0,1,.893.69,4.435,4.435,0,0,1,1.316,3.12,4.191,4.191,0,0,1-1.269,3.04,4.456,4.456,0,0,1,1.269,3.03,4.06,4.06,0,0,1-.7,2.34,9.41,9.41,0,0,1,.846.64A4.441,4.441,0,0,1,407,4489.69Zm-29.986-19.84v-0.05l-0.047-.05a0.1,0.1,0,0,0-.094-0.04H362.961c-0.047,0-.094,0-0.094.04a0.1,0.1,0,0,0-.047.1v21.35c0,0.05,0,.09.047,0.09a0.092,0.092,0,0,0,.094.05h13.912c0.047,0,.094,0,0.094-0.05a0.354,0.354,0,0,0,.047-0.13,3.1,3.1,0,0,1-.094-0.92v-19.52A4.9,4.9,0,0,1,377.014,4469.85Zm26.649,18.6a1.7,1.7,0,0,0-1.222-.51h-1.457a1.4,1.4,0,0,1-1.41-1.38,1.372,1.372,0,0,1,1.41-1.38,1.728,1.728,0,0,0,1.222-.5,1.64,1.64,0,0,0,0-2.39,1.728,1.728,0,0,0-1.222-.5,1.4,1.4,0,0,1-1.41-1.38,1.372,1.372,0,0,1,1.41-1.38,1.728,1.728,0,0,0,1.222-.5,1.676,1.676,0,0,0,.517-1.2,1.636,1.636,0,0,0-.517-1.19,1.737,1.737,0,0,0-1.222-.51h-0.893a1.372,1.372,0,0,1-1.41-1.38v-0.09a1.346,1.346,0,0,1,1.175-1.33,1.542,1.542,0,0,0,.94-0.6,1.593,1.593,0,0,0,.376-1.05,1.659,1.659,0,0,0-.517-1.2l-0.047-.04a1.645,1.645,0,0,0-1.175-.42H380.821a1.217,1.217,0,0,0-.8.33l-0.047.04c-0.047.09-.141,0.19-0.188,0.28v20.53a1.154,1.154,0,0,0,.141.23,0.782,0.782,0,0,0,.188.18c0.094,0.05.141,0.09,0.235,0.14a0.869,0.869,0,0,1,.376.23,16.754,16.754,0,0,1,2.115,1.97,12.549,12.549,0,0,1,1.692,2.39,9.574,9.574,0,0,1,.7,1.38c0.188,0.46.376,0.92,0.564,1.42,0.141,0.51.282,1.01,0.376,1.52s0.188,1.01.235,1.51a1.687,1.687,0,0,0,1.88,1.52,1.84,1.84,0,0,0,1.175-.6,1.64,1.64,0,0,0,.376-1.24,12.976,12.976,0,0,0-.282-1.88c-0.141-.65-0.282-1.24-0.47-1.84s-0.423-1.19-.658-1.79a11.313,11.313,0,0,0-.846-1.7,2.382,2.382,0,0,0-.235-0.37c-0.094-.14-0.141-0.23-0.235-0.36a1.352,1.352,0,0,1,.47-1.89,1.424,1.424,0,0,1,.752-0.23h14.1a1.728,1.728,0,0,0,1.222-.5,1.415,1.415,0,0,0,.517-1.15A1.636,1.636,0,0,0,403.663,4488.45Z" transform="translate(-360 -4467)"/>
</svg>
