<svg xmlns="http://www.w3.org/2000/svg" width="27" height="32" viewBox="0 0 27 32">
  <defs>
    <style>
      .cls-1 {
        fill: #fff;
        fill-rule: evenodd;
      }
    </style>
  </defs>
  <path id="docs.svg" class="cls-1" d="M897.337,2534H881.131a150.9,150.9,0,0,0-7.131,6.98v21.51a3.6,3.6,0,0,0,3.663,3.51h16.206a165.2,165.2,0,0,0,7.131-6.98v-21.48A3.568,3.568,0,0,0,897.337,2534Zm-1,28.49a2.409,2.409,0,0,1-2.464,2.36H877.663a2.375,2.375,0,0,1-2.432-2.33v-21.54a2.383,2.383,0,0,1,2.432-2.33h13.094v5.4a0.605,0.605,0,0,0,.616.6h4.96v17.84h0Zm-4.344-19.02v-3.88l3.6,3.88h-3.6Zm5.575,17.9v-17.32c0-.06-0.032-0.15-0.032-0.21a0.1,0.1,0,0,0-.033-0.06,0.87,0.87,0,0,0-.064-0.1l-5.608-6.02a0.708,0.708,0,0,0-.162-0.09c-0.032,0-.032-0.03-0.065-0.03a0.647,0.647,0,0,0-.259-0.07H878.7a2.39,2.39,0,0,1,2.431-2.29h16.206a2.374,2.374,0,0,1,2.431,2.33v21.54H899.8A2.392,2.392,0,0,1,897.564,2561.37Zm-19.156-16.72h5.413a0.606,0.606,0,0,0,.616-0.6,0.6,0.6,0,0,0-.616-0.58h-5.413a0.6,0.6,0,0,0-.616.58A0.587,0.587,0,0,0,878.408,2544.65Zm5.381,14.24h-5.381a0.591,0.591,0,1,0,0,1.18h5.413a0.6,0.6,0,0,0,.616-0.59A0.657,0.657,0,0,0,883.789,2558.89Zm-6-10.92a0.6,0.6,0,0,0,.616.59h14.456a0.6,0.6,0,0,0,.616-0.59,0.625,0.625,0,0,0-.616-0.59H878.408A0.6,0.6,0,0,0,877.792,2547.97Zm15.072,2.29H878.408a0.591,0.591,0,1,0,0,1.18h14.456a0.6,0.6,0,0,0,.616-0.59A0.625,0.625,0,0,0,892.864,2550.26Zm0,2.92H878.408a0.591,0.591,0,1,0,0,1.18h14.456A0.591,0.591,0,1,0,892.864,2553.18Zm0,2.89H878.408a0.591,0.591,0,1,0,0,1.18h14.456a0.6,0.6,0,0,0,.616-0.59A0.6,0.6,0,0,0,892.864,2556.07Z" transform="translate(-874 -2534)"/>
</svg>
