<svg xmlns="http://www.w3.org/2000/svg" width="38" height="34" viewBox="0 0 38 34">
  <defs>
    <style>
      .cls-1 {
        fill: #18c6ff;
        fill-rule: evenodd;
      }
    </style>
  </defs>
  <path id="imac.svg" class="cls-1" d="M493.041,702H462.958A3.923,3.923,0,0,0,459,705.862v20.091a3.923,3.923,0,0,0,3.958,3.863h10.925l-2.217,3.864a1.542,1.542,0,0,0,0,1.546,1.591,1.591,0,0,0,1.346.773h9.975a1.59,1.59,0,0,0,1.346-.773,1.542,1.542,0,0,0,0-1.546l-2.217-3.864h10.925A3.923,3.923,0,0,0,497,725.953V705.862A3.924,3.924,0,0,0,493.041,702Zm-10.054,32.455h-9.975l2.652-4.637H480.3Zm12.43-8.5a2.354,2.354,0,0,1-2.376,2.318H462.958a2.354,2.354,0,0,1-2.375-2.318v-2.319h34.834v2.319Zm0-3.864H460.583V705.862a2.354,2.354,0,0,1,2.375-2.318h30.083a2.354,2.354,0,0,1,2.376,2.318v16.227ZM477.6,726.726H478.4a0.773,0.773,0,1,0,0-1.546H477.6A0.773,0.773,0,1,0,477.6,726.726Z" transform="translate(-459 -702)"/>
</svg>
