<svg xmlns="http://www.w3.org/2000/svg" width="48" height="40" viewBox="0 0 48 40">
  <defs>
    <style>
      .cls-1 {
        fill: #18c6ff;
        fill-rule: evenodd;
        opacity: 0.9;
      }
    </style>
  </defs>
  <path id="like.svg" class="cls-1" d="M1122,4535.73a4.487,4.487,0,0,0-1.34-3.16,4.672,4.672,0,0,0-3.27-1.32h-11.95c0.1-.23.24-0.47,0.34-0.7,0.28-.71.57-1.41,0.81-2.12a16.859,16.859,0,0,0,.58-2.17c0.14-.7.24-1.46,0.33-2.26a4.5,4.5,0,0,0-1.05-3.34,4.687,4.687,0,0,0-2.98-1.61c-0.09,0-.19-0.04-0.29-0.04a4.6,4.6,0,0,0-3.26,1.03,4.53,4.53,0,0,0-1.63,2.92c0,0.1-.05.19-0.05,0.29-0.05.37-.1,0.75-0.19,1.13a11.938,11.938,0,0,1-.34,1.27c-0.14.38-.29,0.8-0.43,1.18-0.19.42-.38,0.8-0.58,1.18a14.529,14.529,0,0,1-1.39,1.97,12.028,12.028,0,0,1-1.63,1.56,4.077,4.077,0,0,0-.48.28,2.94,2.94,0,0,0-1.87-.66h-14.31a3.047,3.047,0,0,0-2.11.85,3.169,3.169,0,0,0-.91,2.16v21.91a2.959,2.959,0,0,0,.86,2.07,3.054,3.054,0,0,0,2.12.85h14.2a2.967,2.967,0,0,0,1.88-.66,3.933,3.933,0,0,0,2.2.66h19.06a4.713,4.713,0,0,0,3.17-1.23,0.384,0.384,0,0,0,.09-0.09,4.477,4.477,0,0,0,.68-5.56,4.31,4.31,0,0,0,.91-0.71,4.563,4.563,0,0,0,1.34-3.2,4.326,4.326,0,0,0-1.29-3.11,4.616,4.616,0,0,0,1.29-3.11,4.187,4.187,0,0,0-.72-2.4,9.982,9.982,0,0,0,.87-0.66A4.581,4.581,0,0,0,1122,4535.73Zm-30.62,20.35v0.05l-0.05.04a0.1,0.1,0,0,1-.1.05h-14.21c-0.04,0-.09,0-0.09-0.05a0.081,0.081,0,0,1-.05-0.09v-21.91c0-.04,0-0.09.05-0.09a0.094,0.094,0,0,1,.09-0.05h14.21c0.05,0,.1,0,0.1.05a0.531,0.531,0,0,1,.05.14,3.014,3.014,0,0,0-.1.94v20.02A4.954,4.954,0,0,0,1091.38,4556.08Zm27.21-19.08a1.754,1.754,0,0,1-1.25.52h-1.48a1.428,1.428,0,0,0-1.44,1.41,1.4,1.4,0,0,0,1.44,1.42,1.722,1.722,0,0,1,1.24.51,1.7,1.7,0,0,1,.53,1.23,1.673,1.673,0,0,1-.53,1.22,1.731,1.731,0,0,1-1.24.52,1.428,1.428,0,0,0-1.44,1.41,1.4,1.4,0,0,0,1.44,1.42,1.731,1.731,0,0,1,1.24.52,1.673,1.673,0,0,1,.53,1.22,1.7,1.7,0,0,1-.53,1.23,1.764,1.764,0,0,1-1.24.51h-0.92a1.411,1.411,0,0,0-1.44,1.42v0.09a1.39,1.39,0,0,0,1.2,1.37,1.577,1.577,0,0,1,.96.61,1.658,1.658,0,0,1,.39,1.08,1.7,1.7,0,0,1-.53,1.23l-0.05.04a1.667,1.667,0,0,1-1.2.43h-19.01a1.254,1.254,0,0,1-.81-0.33l-0.05-.05c-0.05-.09-0.14-0.19-0.19-0.28v-21.06a1.155,1.155,0,0,1,.14-0.23,0.844,0.844,0,0,1,.19-0.19c0.1-.05.15-0.1,0.24-0.14a1.028,1.028,0,0,0,.39-0.24,17.124,17.124,0,0,0,2.16-2.02,13.069,13.069,0,0,0,1.73-2.45,11.736,11.736,0,0,0,.72-1.41c0.19-.48.38-0.95,0.57-1.47,0.15-.51.29-1.03,0.39-1.55s0.19-1.04.24-1.55a1.718,1.718,0,0,1,.62-1.18,1.783,1.783,0,0,1,1.3-.38,1.861,1.861,0,0,1,1.2.61,1.721,1.721,0,0,1,.38,1.28,13.052,13.052,0,0,1-.29,1.93c-0.14.66-.29,1.27-0.48,1.88s-0.43,1.23-.67,1.84a12.779,12.779,0,0,1-.86,1.74c-0.1.14-.15,0.28-0.24,0.38-0.1.14-.15,0.23-0.24,0.37a1.379,1.379,0,0,0,.48,1.94,1.471,1.471,0,0,0,.76.23h14.4a1.754,1.754,0,0,1,1.25.52,1.439,1.439,0,0,1,.53,1.18A1.673,1.673,0,0,1,1118.59,4537Z" transform="translate(-1074 -4519)"/>
</svg>
