<svg xmlns="http://www.w3.org/2000/svg" width="45" height="51" viewBox="0 0 45 51">
  <defs>
    <style>
      .cls-1 {
        fill: #18c6ff;
        fill-rule: evenodd;
      }
    </style>
  </defs>
  <path id="list.svg" class="cls-1" d="M537.783,5341.14H522.5a1,1,0,1,0,0,1.99h15.283A1,1,0,1,0,537.783,5341.14Zm-3.714,5.07a1.116,1.116,0,0,0-1.5,0,0.955,0.955,0,0,0,0,1.41,1.116,1.116,0,0,0,1.5,0A0.955,0.955,0,0,0,534.069,5346.21Zm-10.82-15.64a1.116,1.116,0,0,0-1.5,0,0.955,0.955,0,0,0,0,1.41,1.116,1.116,0,0,0,1.5,0A0.955,0.955,0,0,0,523.249,5330.57Zm5.606,15.35H522.5a1,1,0,1,0,0,1.99h6.355A1,1,0,1,0,528.855,5345.92Zm8.928,5.98H522.5a1,1,0,1,0,0,1.99h15.283A1,1,0,1,0,537.783,5351.9Zm-3.714,5.07a1.116,1.116,0,0,0-1.5,0,0.96,0.96,0,0,0-.311.7,1,1,0,0,0,.311.71,1.116,1.116,0,0,0,1.5,0,1,1,0,0,0,.311-0.71A0.956,0.956,0,0,0,534.069,5356.97Zm-5.214-.29H522.5a1,1,0,1,0,0,1.99h6.355A1,1,0,1,0,528.855,5356.68Zm8.928,5.97H522.5a1,1,0,1,0,0,2h15.283A1,1,0,1,0,537.783,5362.65Zm-3.714,5.08a1.116,1.116,0,0,0-1.5,0,0.96,0.96,0,0,0-.311.7,1,1,0,0,0,.311.71,1.116,1.116,0,0,0,1.5,0,1,1,0,0,0,.311-0.71A0.956,0.956,0,0,0,534.069,5367.73Zm-5.214-.29H522.5a1,1,0,1,0,0,1.99h6.355A1,1,0,1,0,528.855,5367.44Zm10.97-37.56h-8.106a6.722,6.722,0,0,0-4.5-1.69h-0.929a4.376,4.376,0,0,0-7.582,0h-0.932a6.722,6.722,0,0,0-4.5,1.69h-8.1a5.03,5.03,0,0,0-5.175,4.86v37.4a5.03,5.03,0,0,0,5.175,4.86h34.65a5.031,5.031,0,0,0,5.175-4.86v-37.4A5.031,5.031,0,0,0,539.825,5329.88Zm-22.048.3h1.654a1.055,1.055,0,0,0,1.023-.73,2.163,2.163,0,0,1,4.091,0,1.055,1.055,0,0,0,1.023.73h1.652a4.311,4.311,0,0,1,4.389,3.79H513.388A4.311,4.311,0,0,1,517.777,5330.18Zm25.1,41.96a2.97,2.97,0,0,1-3.052,2.87h-34.65a2.971,2.971,0,0,1-3.053-2.87v-37.4a2.963,2.963,0,0,1,3.053-2.86h6.617a5.717,5.717,0,0,0-.542,2.43v0.65a1.033,1.033,0,0,0,1.061,1h20.375a1.034,1.034,0,0,0,1.062-1v-0.65a5.731,5.731,0,0,0-.542-2.43h6.619a2.962,2.962,0,0,1,3.052,2.86v37.4Zm-27.126-31.24a1.109,1.109,0,0,0-1.5,0l-4.539,4.26-1.4-1.31a1.109,1.109,0,0,0-1.5,0,0.956,0.956,0,0,0,0,1.41l2.149,2.01a1.116,1.116,0,0,0,1.5,0l5.289-4.96A0.956,0.956,0,0,0,515.751,5340.9Zm-2.591,21.75h-5.094a1.034,1.034,0,0,0-1.062,1v4.78a1.034,1.034,0,0,0,1.062,1h5.094a1.033,1.033,0,0,0,1.061-1v-4.78A1.033,1.033,0,0,0,513.16,5362.65Zm-1.061,4.79h-2.972v-2.79H512.1v2.79Zm1.061-15.54h-5.094a1.026,1.026,0,0,0-1.062.99v4.78a1.034,1.034,0,0,0,1.062,1h5.094a1.033,1.033,0,0,0,1.061-1v-4.78A1.025,1.025,0,0,0,513.16,5351.9Zm-1.061,4.78h-2.972v-2.79H512.1v2.79Z" transform="translate(-500 -5326)"/>
</svg>
