<svg xmlns="http://www.w3.org/2000/svg" width="47" height="51" viewBox="0 0 47 51">
  <defs>
    <style>
      .cls-1 {
        fill: #18c6ff;
        fill-rule: evenodd;
      }
    </style>
  </defs>
  <path id="manager.svg" class="cls-1" d="M545.094,5779.12a9.163,9.163,0,0,0-6.374-7.1l-7.438-2.36v-1.05h-1.73v1.54l-1.29,4.91-3.492-3.98h-2.54l-3.492,3.98-1.29-4.91v-1.54h-1.729v1.05l-7.439,2.36a9.168,9.168,0,0,0-6.374,7.1L500,5790h47Zm-25.8,9.23h-9.534l0.769-7.32-1.72-.16-0.787,7.48h-5.978l1.57-8.96a7.515,7.515,0,0,1,5.215-5.81l7.144-2.26,1.916,7.29,1.95-2.23,1.031,1.47Zm6.67,0h-4.923l1.635-10.89-1.683-2.4,2.049-2.34h0.919l2.049,2.34-1.682,2.4Zm13.019,0-0.787-7.48-1.72.16,0.769,7.32h-9.535l-1.576-10.5,1.032-1.47,1.949,2.23,1.916-7.29,7.144,2.26a7.513,7.513,0,0,1,5.215,5.81l1.57,8.96h-5.977Zm-26.338-27.19a8.923,8.923,0,0,0,2.4,3.86l3.372,3.21a4.432,4.432,0,0,0,3.057,1.2h4.052a4.433,4.433,0,0,0,3.056-1.2l3.372-3.21a8.925,8.925,0,0,0,2.4-3.86,4.188,4.188,0,0,0,3.839-4.07,4.035,4.035,0,0,0-1.756-3.29h0.027v-4.93a4.194,4.194,0,0,0-3.678-4.07,9.243,9.243,0,0,0-8.668-5.8H523.5c-7.151,0-12.969,5.53-12.969,12.34v2.46h0.027a4.038,4.038,0,0,0-1.756,3.29A4.188,4.188,0,0,0,512.643,5761.16Zm20.368-2.54a7.187,7.187,0,0,1-2.279,5.24l-3.372,3.21a2.722,2.722,0,0,1-1.834.72h-4.052a2.722,2.722,0,0,1-1.834-.72l-3.372-3.21a7.187,7.187,0,0,1-2.279-5.24v-3.99h3.4a15.961,15.961,0,0,0,10.245-3.65l0.265,0.42a7.037,7.037,0,0,0,5.115,3.17v4.05h0Zm3.458-1.53a2.476,2.476,0,0,1-1.77,2.33c0.024-.26.041-0.53,0.041-0.8v-3.84A2.469,2.469,0,0,1,536.469,5757.09Zm-24.208-5.75a10.992,10.992,0,0,1,11.239-10.7h0.623a7.479,7.479,0,0,1,7.192,5.16l0.179,0.6h0.652a2.539,2.539,0,0,1,2.594,2.47v4.19a4.907,4.907,0,0,0-.865-0.08,5.338,5.338,0,0,1-4.5-2.42l-1.384-2.2-0.784.75a14.151,14.151,0,0,1-9.824,3.87h-4.262a4.9,4.9,0,0,0-.864.08v-1.72Zm0,3.44v3.84c0,0.27.016,0.54,0.04,0.8A2.413,2.413,0,0,1,512.261,5754.78Z" transform="translate(-500 -5739)"/>
</svg>
