<?xml version="1.0" encoding="utf-8"?><svg xmlns="http://www.w3.org/2000/svg" xmlns:xlink="http://www.w3.org/1999/xlink"><symbol viewBox="0 0 9.41 14" id="arrow-left" xmlns="http://www.w3.org/2000/svg"><path d="M7 13L.99 7 7 .99"/></symbol><symbol viewBox="0 0 9.41 14" id="arrow-right" xmlns="http://www.w3.org/2000/svg"><path d="M2.41.99l6 6.01-6 6"/></symbol><symbol viewBox="0 0 39.97 36" id="att" xmlns="http://www.w3.org/2000/svg"><path d="M39.77 34.44L20.78.48a.932.932 0 00-1.63 0L.09 34.54a1.04 1.04 0 000 .97.947.947 0 00.82.49h38.12a.958.958 0 00.94-.97.915.915 0 00-.2-.59zm-37.23-.38L19.96 2.91l17.43 31.15H2.54zm16.48-21.31v13.93a.945.945 0 101.89 0V12.75a.946.946 0 10-1.89 0zm.94 16.03a1.211 1.211 0 101.17 1.21 1.185 1.185 0 00-1.17-1.21z" fill-rule="evenodd"/></symbol><symbol viewBox="0 0 36 36" id="clock" xmlns="http://www.w3.org/2000/svg"><path d="M18 5.868a.783.783 0 00.78-.782v-.392a.78.78 0 10-1.56 0v.392a.783.783 0 00.78.782zm0 24.261a.783.783 0 00-.78.782v.389a.78.78 0 101.56 0v-.391a.783.783 0 00-.78-.78zM5.09 17.216H4.7a.783.783 0 100 1.565h.39a.783.783 0 000-1.565zm26.21 0h-.39a.783.783 0 000 1.565h.39a.783.783 0 100-1.565zM9.16 8.059a.778.778 0 00-1.1 1.1l.27.274a.8.8 0 00.55.234.777.777 0 00.55-.234.762.762 0 000-1.1zm-.83 18.509l-.27.274a.762.762 0 000 1.1.778.778 0 00.55.235.8.8 0 00.55-.235l.27-.274a.778.778 0 10-1.1-1.1zM26.84 8.059l-.27.274a.762.762 0 000 1.1.777.777 0 00.55.234.755.755 0 00.54-.234l.28-.274a.778.778 0 00-1.1-1.1zm-8.06 9.626v-7.121a.78.78 0 10-1.56 0V18a.8.8 0 00.23.548l8.57 8.57a.763.763 0 001.1 0 .762.762 0 000-1.1zM18 0a18 18 0 1018 18A18 18 0 0018 0zm0 34.435A16.436 16.436 0 1134.43 18 16.428 16.428 0 0118 34.434z" fill-rule="evenodd"/></symbol><symbol viewBox="0 0 51 51" id="clock2" xmlns="http://www.w3.org/2000/svg"><path d="M25.5 0A25.5 25.5 0 1051 25.5 25.53 25.53 0 0025.5 0zm0 49.3a23.8 23.8 0 1123.8-23.8 23.831 23.831 0 01-23.8 23.8zm.85-27.18v-8.63a.85.85 0 10-1.7 0v8.63a3.4 3.4 0 00-2.43 2.43h-6.07a.85.85 0 100 1.7h6.07a3.393 3.393 0 104.13-4.13zm-.85 4.98a1.7 1.7 0 111.7-1.7 1.7 1.7 0 01-1.7 1.7zm0-18.7a.849.849 0 00.85-.85V6.7a.85.85 0 10-1.7 0v.85a.849.849 0 00.85.85zm0 34a.843.843 0 00-.85.85v.84a.85.85 0 101.7 0v-.84a.843.843 0 00-.85-.85zm18.7-17.85h-.85a.85.85 0 000 1.7h.85a.85.85 0 000-1.7zm-36.55 0H6.8a.85.85 0 000 1.7h.85a.85.85 0 000-1.7zm30.47-12.98l-.6.6a.851.851 0 000 1.2.832.832 0 00.6.25.816.816 0 00.6-.25l.6-.6a.833.833 0 000-1.2.851.851 0 00-1.2 0zM12.28 37.42l-.6.6a.833.833 0 000 1.2.857.857 0 00.6.25.894.894 0 00.6-.25l.6-.6a.851.851 0 000-1.2.833.833 0 00-1.2 0zm26.44 0a.833.833 0 00-1.2 0 .851.851 0 000 1.2l.6.6a.875.875 0 00.6.25.857.857 0 00.6-.25.833.833 0 000-1.2zM12.88 11.57a.851.851 0 00-1.2 0 .833.833 0 000 1.2l.6.6a.816.816 0 00.6.25.832.832 0 00.6-.25.851.851 0 000-1.2z" fill-rule="evenodd"/></symbol><symbol id="close" viewBox="0 0 17 18" xmlns="http://www.w3.org/2000/svg"><defs><style>.fcls-1{fill-rule:evenodd;opacity:.5}</style></defs><path id="fПрямоугольник_660" data-name="Прямоугольник 660" class="fcls-1" d="M1236.07 190.283l.92.957-16.06 16.752-.92-.958z" transform="translate(-1220 -190)"/><path id="fПрямоугольник_660_копия" data-name="Прямоугольник 660 копия" class="fcls-1" d="M1236.93 206.639l-.91.951-15.95-16.632.91-.95z" transform="translate(-1220 -190)"/></symbol><symbol viewBox="0 0 47 39" id="dislike" xmlns="http://www.w3.org/2000/svg"><path d="M47 22.69a4.318 4.318 0 01-1.316 3.07 4.52 4.52 0 01-3.2 1.29h-11.7c.094.23.235.46.329.69.282.69.564 1.38.8 2.06a15.488 15.488 0 01.564 2.12c.141.69.235 1.42.329 2.2a4.416 4.416 0 01-1.034 3.26 4.5 4.5 0 01-2.914 1.56c-.094 0-.188.05-.282.05a4.527 4.527 0 01-3.2-1.01 4.394 4.394 0 01-1.6-2.85c0-.09-.047-.18-.047-.27a9.125 9.125 0 00-.188-1.11 12.8 12.8 0 00-.329-1.24c-.141-.36-.282-.78-.423-1.14-.188-.42-.376-.79-.564-1.15a14.483 14.483 0 00-1.363-1.93 12.5 12.5 0 00-1.6-1.52 4.174 4.174 0 01-.47-.27 2.882 2.882 0 01-1.833.64H2.961a2.969 2.969 0 01-2.068-.83A3.059 3.059 0 010 24.2V2.85A2.865 2.865 0 01.846.82 3.005 3.005 0 012.914 0h13.912a2.882 2.882 0 011.833.64A3.877 3.877 0 0120.821 0H39.48a4.659 4.659 0 013.1 1.19.782.782 0 00.094.09 4.441 4.441 0 011.316 3.13 4.36 4.36 0 01-.658 2.29 4.629 4.629 0 01.893.69 4.435 4.435 0 011.316 3.12 4.191 4.191 0 01-1.269 3.04 4.456 4.456 0 011.269 3.03 4.06 4.06 0 01-.7 2.34 9.41 9.41 0 01.846.64A4.441 4.441 0 0147 22.69zM17.014 2.85V2.8l-.047-.05a.1.1 0 00-.094-.04H2.961c-.047 0-.094 0-.094.04a.1.1 0 00-.047.1V24.2c0 .05 0 .09.047.09a.092.092 0 00.094.05h13.912c.047 0 .094 0 .094-.05a.354.354 0 00.047-.13 3.1 3.1 0 01-.094-.92V3.72a4.9 4.9 0 01.094-.87zm26.649 18.6a1.7 1.7 0 00-1.222-.51h-1.457a1.4 1.4 0 01-1.41-1.38 1.372 1.372 0 011.41-1.38 1.728 1.728 0 001.222-.5 1.64 1.64 0 000-2.39 1.728 1.728 0 00-1.222-.5 1.4 1.4 0 01-1.41-1.38 1.372 1.372 0 011.41-1.38 1.728 1.728 0 001.222-.5 1.676 1.676 0 00.517-1.2 1.636 1.636 0 00-.517-1.19 1.737 1.737 0 00-1.222-.51h-.893a1.372 1.372 0 01-1.41-1.38v-.09a1.346 1.346 0 011.175-1.33 1.542 1.542 0 00.94-.6 1.593 1.593 0 00.376-1.05 1.659 1.659 0 00-.517-1.2l-.047-.04a1.645 1.645 0 00-1.175-.42H20.821a1.217 1.217 0 00-.8.33l-.047.04c-.047.09-.141.19-.188.28V23.7a1.154 1.154 0 00.141.23.782.782 0 00.188.18c.094.05.141.09.235.14a.869.869 0 01.376.23 16.754 16.754 0 012.115 1.97 12.549 12.549 0 011.692 2.39 9.574 9.574 0 01.7 1.38c.188.46.376.92.564 1.42.141.51.282 1.01.376 1.52s.188 1.01.235 1.51a1.687 1.687 0 001.88 1.52 1.84 1.84 0 001.175-.6 1.64 1.64 0 00.376-1.24 12.976 12.976 0 00-.282-1.88c-.141-.65-.282-1.24-.47-1.84s-.423-1.19-.658-1.79a11.313 11.313 0 00-.846-1.7 2.382 2.382 0 00-.235-.37c-.094-.14-.141-.23-.235-.36a1.352 1.352 0 01.47-1.89 1.424 1.424 0 01.752-.23h14.1a1.728 1.728 0 001.222-.5 1.415 1.415 0 00.517-1.15 1.636 1.636 0 00-.511-1.19z" fill-rule="evenodd"/></symbol><symbol viewBox="0 0 27 32" id="docs" xmlns="http://www.w3.org/2000/svg"><path d="M23.337 0H7.131A150.9 150.9 0 000 6.98v21.51A3.6 3.6 0 003.663 32h16.206A165.2 165.2 0 0027 25.02V3.54A3.568 3.568 0 0023.337 0zm-1 28.49a2.409 2.409 0 01-2.464 2.36H3.663a2.375 2.375 0 01-2.432-2.33V6.98a2.383 2.383 0 012.432-2.33h13.094v5.4a.605.605 0 00.616.6h4.96v17.84zM17.993 9.47V5.59l3.6 3.88h-3.6zm5.575 17.9V10.05c0-.06-.032-.15-.032-.21a.1.1 0 00-.033-.06.87.87 0 00-.064-.1l-5.608-6.02a.708.708 0 00-.162-.09c-.032 0-.032-.03-.065-.03a.647.647 0 00-.259-.07H4.7a2.39 2.39 0 012.431-2.29h16.206a2.374 2.374 0 012.431 2.33v21.54h.032a2.392 2.392 0 01-2.236 2.32zM4.412 10.65h5.413a.606.606 0 00.616-.6.6.6 0 00-.616-.58H4.412a.6.6 0 00-.616.58.587.587 0 00.612.6zm5.381 14.24H4.412a.591.591 0 100 1.18h5.413a.6.6 0 00.616-.59.657.657 0 00-.652-.59zm-6-10.92a.6.6 0 00.616.59h14.456a.6.6 0 00.616-.59.625.625 0 00-.616-.59H4.408a.6.6 0 00-.616.59zm15.072 2.29H4.408a.591.591 0 100 1.18h14.456a.6.6 0 00.616-.59.625.625 0 00-.616-.59zm0 2.92H4.408a.591.591 0 100 1.18h14.456a.591.591 0 100-1.18zm0 2.89H4.408a.591.591 0 100 1.18h14.456a.6.6 0 00.616-.59.6.6 0 00-.616-.59z" fill-rule="evenodd"/></symbol><symbol viewBox="0 0 27 34" id="file" xmlns="http://www.w3.org/2000/svg"><path d="M23.447 0H3.553A3.557 3.557 0 000 3.54v26.917A3.558 3.558 0 003.553 34h10.906a3.461 3.461 0 002.522-1.027l8.989-8.961A3.587 3.587 0 0027 21.5V3.54A3.557 3.557 0 0023.447 0zm1.528 23.02l-8.988 8.96a1.355 1.355 0 01-.356.284V24.79a2.135 2.135 0 012.132-2.125h7.5a1.387 1.387 0 01-.288.354zm.6-1.771h-7.816a3.558 3.558 0 00-3.553 3.542v7.792H3.553a2.134 2.134 0 01-2.132-2.125V3.54a2.135 2.135 0 012.132-2.125h19.894a2.135 2.135 0 012.132 2.125v17.708zM6.035 8.499H18.47a.708.708 0 100-1.416H6.039a.709.709 0 100 1.417zm0 4.25h4.974a.708.708 0 100-1.416H6.035a.708.708 0 10.004 1.415zm8.171-1.416a.708.708 0 100 1.416h1.066a.708.708 0 100-1.416H14.21zm-5.329 8.5H6.035a.708.708 0 100 1.416h2.842a.709.709 0 10.004-1.417zm10.658-4.25h-13.5a.708.708 0 100 1.416h13.5a.709.709 0 10.004-1.417z" fill-rule="evenodd"/></symbol><symbol viewBox="0 0 38 34" id="imac" xmlns="http://www.w3.org/2000/svg"><path d="M34.041 0H3.958A3.923 3.923 0 000 3.862v20.091a3.923 3.923 0 003.958 3.863h10.925l-2.217 3.864a1.542 1.542 0 000 1.546 1.591 1.591 0 001.346.773h9.975a1.59 1.59 0 001.346-.773 1.542 1.542 0 000-1.546l-2.217-3.864h10.925A3.923 3.923 0 0038 23.953V3.862A3.924 3.924 0 0034.041 0zM23.987 32.455h-9.975l2.652-4.637H21.3zm12.43-8.5a2.354 2.354 0 01-2.376 2.318H3.958a2.354 2.354 0 01-2.375-2.318v-2.319h34.834v2.319zm0-3.864H1.583V3.862a2.354 2.354 0 012.375-2.318h30.083a2.354 2.354 0 012.376 2.318v16.227zM18.6 24.726h.8a.773.773 0 100-1.546h-.8a.773.773 0 100 1.546z" fill-rule="evenodd"/></symbol><symbol viewBox="0 0 48 40" id="like" xmlns="http://www.w3.org/2000/svg"><path d="M48 16.73a4.487 4.487 0 00-1.34-3.16 4.672 4.672 0 00-3.27-1.32H31.44c.1-.23.24-.47.34-.7.28-.71.57-1.41.81-2.12a16.859 16.859 0 00.58-2.17c.14-.7.24-1.46.33-2.26a4.5 4.5 0 00-1.05-3.34A4.687 4.687 0 0029.47.05c-.09 0-.19-.04-.29-.04a4.6 4.6 0 00-3.26 1.03 4.53 4.53 0 00-1.63 2.92c0 .1-.05.19-.05.29-.05.37-.1.75-.19 1.13a11.938 11.938 0 01-.34 1.27c-.14.38-.29.8-.43 1.18-.19.42-.38.8-.58 1.18a14.529 14.529 0 01-1.39 1.97 12.028 12.028 0 01-1.63 1.56 4.077 4.077 0 00-.48.28 2.94 2.94 0 00-1.87-.66H3.02a3.047 3.047 0 00-2.11.85A3.169 3.169 0 000 15.17v21.91a2.959 2.959 0 00.86 2.07 3.054 3.054 0 002.12.85h14.2a2.967 2.967 0 001.88-.66 3.933 3.933 0 002.2.66h19.06a4.713 4.713 0 003.17-1.23.384.384 0 00.09-.09 4.477 4.477 0 00.68-5.56 4.31 4.31 0 00.91-.71 4.563 4.563 0 001.34-3.2 4.326 4.326 0 00-1.29-3.11 4.616 4.616 0 001.29-3.11 4.187 4.187 0 00-.72-2.4 9.982 9.982 0 00.87-.66 4.581 4.581 0 001.34-3.2zM17.38 37.08v.05l-.05.04a.1.1 0 01-.1.05H3.02c-.04 0-.09 0-.09-.05a.081.081 0 01-.05-.09V15.17c0-.04 0-.09.05-.09a.094.094 0 01.09-.05h14.21c.05 0 .1 0 .1.05a.531.531 0 01.05.14 3.014 3.014 0 00-.1.94v20.02a4.954 4.954 0 00.1.9zM44.59 18a1.754 1.754 0 01-1.25.52h-1.48a1.428 1.428 0 00-1.44 1.41 1.4 1.4 0 001.44 1.42 1.722 1.722 0 011.24.51 1.7 1.7 0 01.53 1.23 1.673 1.673 0 01-.53 1.22 1.731 1.731 0 01-1.24.52 1.428 1.428 0 00-1.44 1.41 1.4 1.4 0 001.44 1.42 1.731 1.731 0 011.24.52 1.673 1.673 0 01.53 1.22 1.7 1.7 0 01-.53 1.23 1.764 1.764 0 01-1.24.51h-.92a1.411 1.411 0 00-1.44 1.42v.09a1.39 1.39 0 001.2 1.37 1.577 1.577 0 01.96.61 1.658 1.658 0 01.39 1.08 1.7 1.7 0 01-.53 1.23l-.05.04a1.667 1.667 0 01-1.2.43H21.26a1.254 1.254 0 01-.81-.33l-.05-.05c-.05-.09-.14-.19-.19-.28V15.69a1.155 1.155 0 01.14-.23.844.844 0 01.19-.19c.1-.05.15-.1.24-.14a1.028 1.028 0 00.39-.24 17.124 17.124 0 002.16-2.02 13.069 13.069 0 001.73-2.45 11.736 11.736 0 00.72-1.41c.19-.48.38-.95.57-1.47a17.134 17.134 0 00.63-3.1 1.718 1.718 0 01.62-1.18 1.783 1.783 0 011.3-.38 1.861 1.861 0 011.2.61 1.721 1.721 0 01.38 1.28 13.052 13.052 0 01-.29 1.93c-.14.66-.29 1.27-.48 1.88s-.43 1.23-.67 1.84a12.779 12.779 0 01-.86 1.74c-.1.14-.15.28-.24.38-.1.14-.15.23-.24.37a1.379 1.379 0 00.48 1.94 1.471 1.471 0 00.76.23h14.4a1.754 1.754 0 011.25.52 1.439 1.439 0 01.53 1.18 1.673 1.673 0 01-.53 1.22z" fill-rule="evenodd" opacity=".9"/></symbol><symbol viewBox="0 0 45 51" id="list" xmlns="http://www.w3.org/2000/svg"><path d="M37.783 15.14H22.5a1 1 0 100 1.99h15.283a1 1 0 100-1.99zm-3.714 5.07a1.116 1.116 0 00-1.5 0 .955.955 0 000 1.41 1.116 1.116 0 001.5 0 .955.955 0 000-1.41zM23.249 4.57a1.116 1.116 0 00-1.5 0 .955.955 0 000 1.41 1.116 1.116 0 001.5 0 .955.955 0 000-1.41zm5.606 15.35H22.5a1 1 0 100 1.99h6.355a1 1 0 100-1.99zm8.928 5.98H22.5a1 1 0 100 1.99h15.283a1 1 0 100-1.99zm-3.714 5.07a1.116 1.116 0 00-1.5 0 .96.96 0 00-.311.7 1 1 0 00.311.71 1.116 1.116 0 001.5 0 1 1 0 00.311-.71.956.956 0 00-.311-.7zm-5.214-.29H22.5a1 1 0 100 1.99h6.355a1 1 0 100-1.99zm8.928 5.97H22.5a1 1 0 100 2h15.283a1 1 0 100-2zm-3.714 5.08a1.116 1.116 0 00-1.5 0 .96.96 0 00-.311.7 1 1 0 00.311.71 1.116 1.116 0 001.5 0 1 1 0 00.311-.71.956.956 0 00-.311-.7zm-5.214-.29H22.5a1 1 0 100 1.99h6.355a1 1 0 100-1.99zm10.97-37.56h-8.106a6.722 6.722 0 00-4.5-1.69h-.929a4.376 4.376 0 00-7.582 0h-.932a6.722 6.722 0 00-4.5 1.69h-8.1A5.03 5.03 0 00.001 8.74v37.4A5.03 5.03 0 005.176 51h34.65a5.031 5.031 0 005.175-4.86V8.74a5.031 5.031 0 00-5.176-4.86zm-22.048.3h1.654a1.055 1.055 0 001.023-.73 2.163 2.163 0 014.091 0 1.055 1.055 0 001.023.73h1.652a4.311 4.311 0 014.389 3.79H13.388a4.311 4.311 0 014.389-3.79zm25.1 41.96a2.97 2.97 0 01-3.052 2.87H5.175a2.971 2.971 0 01-3.053-2.87V8.74a2.963 2.963 0 013.053-2.86h6.617a5.717 5.717 0 00-.542 2.43v.65a1.033 1.033 0 001.061 1h20.375a1.034 1.034 0 001.062-1v-.65a5.731 5.731 0 00-.542-2.43h6.619a2.962 2.962 0 013.052 2.86v37.4zM15.751 14.9a1.109 1.109 0 00-1.5 0l-4.539 4.26-1.4-1.31a1.109 1.109 0 00-1.5 0 .956.956 0 000 1.41l2.149 2.01a1.116 1.116 0 001.5 0l5.289-4.96a.956.956 0 00.001-1.41zM13.16 36.65H8.066a1.034 1.034 0 00-1.062 1v4.78a1.034 1.034 0 001.062 1h5.094a1.033 1.033 0 001.061-1v-4.78a1.033 1.033 0 00-1.061-1zm-1.061 4.79H9.127v-2.79H12.1v2.79zM13.16 25.9H8.066a1.026 1.026 0 00-1.062.99v4.78a1.034 1.034 0 001.062 1h5.094a1.033 1.033 0 001.061-1v-4.78a1.025 1.025 0 00-1.061-.99zm-1.061 4.78H9.127v-2.79H12.1v2.79z" fill-rule="evenodd"/></symbol><symbol viewBox="0 0 47 51" id="manager" xmlns="http://www.w3.org/2000/svg"><path d="M45.094 40.12a9.163 9.163 0 00-6.374-7.1l-7.438-2.36v-1.05h-1.73v1.54l-1.29 4.91-3.492-3.98h-2.54l-3.492 3.98-1.29-4.91v-1.54h-1.729v1.05L8.28 33.02a9.168 9.168 0 00-6.374 7.1L0 51h47zm-25.8 9.23H9.76l.769-7.32-1.72-.16-.787 7.48H2.044l1.57-8.96a7.515 7.515 0 015.215-5.81l7.144-2.26 1.916 7.29 1.95-2.23 1.031 1.47zm6.67 0h-4.923l1.635-10.89-1.683-2.4 2.049-2.34h.919l2.049 2.34-1.682 2.4zm13.019 0l-.787-7.48-1.72.16.769 7.32H27.71l-1.576-10.5 1.032-1.47 1.949 2.23 1.916-7.29 7.144 2.26a7.513 7.513 0 015.215 5.81l1.57 8.96h-5.977zM12.645 22.16a8.923 8.923 0 002.4 3.86l3.372 3.21a4.432 4.432 0 003.057 1.2h4.052a4.433 4.433 0 003.056-1.2l3.372-3.21a8.925 8.925 0 002.4-3.86 4.188 4.188 0 003.839-4.07 4.035 4.035 0 00-1.756-3.29h.027V9.87a4.194 4.194 0 00-3.678-4.07A9.243 9.243 0 0024.118 0H23.5c-7.151 0-12.969 5.53-12.969 12.34v2.46h.027a4.038 4.038 0 00-1.756 3.29 4.188 4.188 0 003.841 4.07zm20.368-2.54a7.187 7.187 0 01-2.279 5.24l-3.372 3.21a2.722 2.722 0 01-1.834.72h-4.052a2.722 2.722 0 01-1.834-.72l-3.372-3.21a7.187 7.187 0 01-2.279-5.24v-3.99h3.4a15.961 15.961 0 0010.245-3.65l.265.42a7.037 7.037 0 005.115 3.17v4.05zm3.458-1.53a2.476 2.476 0 01-1.77 2.33c.024-.26.041-.53.041-.8v-3.84a2.469 2.469 0 011.727 2.31zm-24.208-5.75a10.992 10.992 0 0111.239-10.7h.623a7.479 7.479 0 017.192 5.16l.179.6h.652a2.539 2.539 0 012.594 2.47v4.19a4.907 4.907 0 00-.865-.08 5.338 5.338 0 01-4.5-2.42l-1.384-2.2-.784.75a14.151 14.151 0 01-9.824 3.87h-4.262a4.9 4.9 0 00-.864.08v-1.72zm0 3.44v3.84c0 .27.016.54.04.8a2.413 2.413 0 01-.042-4.64z" fill-rule="evenodd"/></symbol><symbol viewBox="0 0 33 33" id="restore" xmlns="http://www.w3.org/2000/svg"><path d="M16.5 1.18a15.489 15.489 0 0115.32 15.31H33a16.514 16.514 0 10-2.69 9.03v3.73h1.03v-5.9h-5.9v1.03h4.19A15.317 15.317 0 1116.5 1.18z" fill-rule="evenodd"/></symbol><symbol viewBox="0 0 11.625 7.032" id="select__arrow" xmlns="http://www.w3.org/2000/svg"><path d="M11.126 1.219L5.812 6.532.498 1.219" fill-rule="evenodd"/></symbol></svg>