<?xml version="1.0" encoding="utf-8"?>
<!-- Generator: Adobe Illustrator 22.0.1, SVG Export Plug-In . SVG Version: 6.00 Build 0)  -->
<svg version="1.1" id="Слой_1" xmlns="http://www.w3.org/2000/svg" xmlns:xlink="http://www.w3.org/1999/xlink" x="0px" y="0px"
	 viewBox="0 0 865.9 194.6" style="enable-background:new 0 0 865.9 194.6;" xml:space="preserve">
<style type="text/css">
	.st0{display:none;}
	.st1{display:inline;fill:#5D5E5E;}
	.st2{fill:#FDFDFE;}
</style>
<g id="Layer_2" class="st0">
	<rect x="-168.3" y="-506.6" class="st1" width="1166.7" height="1245.8"/>
</g>
<g id="Layer_1">
	<path class="st2" d="M75.2,194.6L0,9h40.3l40,98.8l-10.1,4.1L33,19.9H16.2l59.1,145.8l53.4-131.8l15.5-0.8h199.4
		c25.3,0,45.8,18.6,45.8,41.4c0,22.8-20.5,41.4-45.8,41.4h-8l-53.8-48v94H168.4l0.7-58h50.4v-13h-69.7v83.9h147.9v-42.6h30.8
		l51.9,46.2l75.8-0.9V38.2h90.4l1.1,140.4l78.5-0.1l20-52.9l40.9-0.1l23.8,53l25.5,0.1c0.7,0,1.3,0,1.9,0h63.8
		c26.4,0,47.8-18.8,47.8-42c0-23.1-21.5-42-47.8-42h-27.5c-17.6,0-31.9-13-31.9-29s14.3-29,31.9-29h27.5c17.6,0,31.9,13,31.9,29v5.7
		l15.9-2.2v-7.2c0-23.1-21.5-42-47.8-42h-27.5c-26.4,0-47.8,18.8-47.8,42c0,23.1,21.5,42,47.8,42h27.5c17.6,0,31.9,13,31.9,29
		s-14.3,29-31.9,29l-75.1,0.9c-4.8,0-6.5-5.1-7.7-9L668.6,28.9l-57.3,141.4h-47.6V36.4h52.9l0.5-16.3H440.4L441,167h-45.7l-45-37.7
		l10.3-2.6c26.3-6.7,44.7-28.1,44.7-52.2c0-30-27.7-54.3-61.7-54.3l-226-0.2l-10,24.7l-10.1-4.1l12.8-31.5l34.3,0.2h199.1
		c40,0,72.6,29.2,72.6,65.2c0,26-17.4,49.3-43.3,59.6l26.3,22h30.9L429.4,9.2h198.9l-1.1,38.1h-52.6v112.2H604L668.7,0l61,150.4
		c0.2,0.5,0.3,1,0.5,1.5l71.9-0.8c11.7,0,21.1-8.1,21.1-18.1s-9.4-18.1-21-18.1h-27.5c-32.4,0-58.7-23.7-58.7-52.8
		s26.3-52.8,58.7-52.8h27.5c32.4,0,58.7,23.7,58.7,52.8v16.7l-37.7,5.1V65.8c0-10-9.4-18.1-21-18.1h-27.5c-11.6,0-21,8.1-21,18.1
		s9.4,18.1,21,18.1h27.5c32.4,0,58.7,23.7,58.7,52.8s-26.3,52.8-58.7,52.8h-63.8c-0.7,0-1.4,0-2.1,0l-32.3-0.1l-23.8-53h-26.4
		l-20,52.9l-96.8,0.1l-1.2-140.3h-68.7v139.4l-90.7,1l-52-46.2h-15.8v42.6H139V80.1h91.4v34.7h-50.5l-0.5,36.2h91.5V43.9H144.4
		l-8.3,0.4L75.2,194.6z M339.7,104.9h3.9c19.3,0,34.9-13.7,34.9-30.5s-15.7-30.5-34.9-30.5h-72.4L339.7,104.9z"/>
</g>
</svg>
